<mxfile host="Electron" agent="Mozilla/5.0 (Windows NT 10.0; Win64; x64) AppleWebKit/537.36 (KHTML, like Gecko) draw.io/27.0.9 Chrome/134.0.6998.205 Electron/35.4.0 Safari/537.36" version="27.0.9">
  <diagram name="Page-1" id="PfAoDdkUUtxIyvnKKpLq">
    <mxGraphModel dx="1158" dy="1796" grid="1" gridSize="10" guides="1" tooltips="1" connect="1" arrows="1" fold="1" page="1" pageScale="1" pageWidth="850" pageHeight="1100" math="0" shadow="0">
      <root>
        <mxCell id="0" />
        <mxCell id="1" parent="0" />
        <mxCell id="DmLLjxnq52UOg-lWH7cw-22" style="edgeStyle=orthogonalEdgeStyle;rounded=0;orthogonalLoop=1;jettySize=auto;html=1;fillColor=#e1d5e7;strokeColor=#9673a6;" edge="1" parent="1" source="DmLLjxnq52UOg-lWH7cw-1" target="DmLLjxnq52UOg-lWH7cw-2">
          <mxGeometry relative="1" as="geometry" />
        </mxCell>
        <mxCell id="DmLLjxnq52UOg-lWH7cw-1" value="&lt;b&gt;&lt;font style=&quot;font-size: 18px;&quot;&gt;Data Analytics&lt;/font&gt;&lt;/b&gt;" style="ellipse;whiteSpace=wrap;html=1;fillColor=#d0cee2;dashed=1;strokeColor=#56517e;" vertex="1" parent="1">
          <mxGeometry x="180" y="265" width="160" height="100" as="geometry" />
        </mxCell>
        <mxCell id="DmLLjxnq52UOg-lWH7cw-2" value="&lt;span style=&quot;font-size: 18px;&quot;&gt;&lt;b&gt;Exploratory Data Analysis&lt;/b&gt;&lt;/span&gt;&lt;div&gt;&lt;span style=&quot;font-size: 18px;&quot;&gt;&lt;b&gt;(EDA)&lt;/b&gt;&lt;/span&gt;&lt;/div&gt;" style="ellipse;whiteSpace=wrap;html=1;fillColor=#fad9d5;dashed=1;strokeColor=#ae4132;" vertex="1" parent="1">
          <mxGeometry x="425" y="260" width="195" height="110" as="geometry" />
        </mxCell>
        <mxCell id="DmLLjxnq52UOg-lWH7cw-3" value="&lt;b&gt;&lt;font style=&quot;font-size: 14px;&quot;&gt;Database Exploration&lt;/font&gt;&lt;/b&gt;" style="rounded=1;whiteSpace=wrap;html=1;fillColor=#dae8fc;strokeColor=light-dark(#15458a, #5c79a3);" vertex="1" parent="1">
          <mxGeometry x="330" y="120" width="130" height="60" as="geometry" />
        </mxCell>
        <mxCell id="DmLLjxnq52UOg-lWH7cw-4" value="&lt;b&gt;&lt;font style=&quot;font-size: 14px;&quot;&gt;Dimension Exploration&lt;/font&gt;&lt;/b&gt;" style="rounded=1;whiteSpace=wrap;html=1;fillColor=#dae8fc;strokeColor=light-dark(#0c4088, #5c79a3);" vertex="1" parent="1">
          <mxGeometry x="520" y="120" width="130" height="60" as="geometry" />
        </mxCell>
        <mxCell id="DmLLjxnq52UOg-lWH7cw-5" value="&lt;b&gt;&lt;font style=&quot;font-size: 14px;&quot;&gt;Date&lt;/font&gt;&lt;/b&gt;&lt;div&gt;&lt;b&gt;&lt;font style=&quot;font-size: 14px;&quot;&gt;&amp;nbsp;Exploration&lt;/font&gt;&lt;/b&gt;&lt;/div&gt;" style="rounded=1;whiteSpace=wrap;html=1;fillColor=#dae8fc;strokeColor=light-dark(#083f8c, #5c79a3);" vertex="1" parent="1">
          <mxGeometry x="690" y="200" width="130" height="60" as="geometry" />
        </mxCell>
        <mxCell id="DmLLjxnq52UOg-lWH7cw-6" value="&lt;b&gt;&lt;font style=&quot;font-size: 14px;&quot;&gt;Measure Exploration&lt;/font&gt;&lt;/b&gt;" style="rounded=1;whiteSpace=wrap;html=1;fillColor=#dae8fc;strokeColor=light-dark(#104084, #5c79a3);" vertex="1" parent="1">
          <mxGeometry x="670" y="380" width="130" height="60" as="geometry" />
        </mxCell>
        <mxCell id="DmLLjxnq52UOg-lWH7cw-7" value="&lt;span style=&quot;font-size: 14px;&quot;&gt;&lt;b&gt;Magnitude&lt;/b&gt;&lt;/span&gt;" style="rounded=1;whiteSpace=wrap;html=1;fillColor=#dae8fc;strokeColor=light-dark(#154384, #5c79a3);" vertex="1" parent="1">
          <mxGeometry x="510" y="480" width="130" height="60" as="geometry" />
        </mxCell>
        <mxCell id="DmLLjxnq52UOg-lWH7cw-8" value="&lt;span style=&quot;font-size: 14px;&quot;&gt;&lt;b&gt;Ranking&lt;/b&gt;&lt;/span&gt;&lt;div&gt;&lt;span style=&quot;font-size: 14px;&quot;&gt;&lt;b&gt;Top-N Bottom N&lt;/b&gt;&lt;/span&gt;&lt;/div&gt;" style="rounded=1;whiteSpace=wrap;html=1;fillColor=#dae8fc;strokeColor=light-dark(#13458b, #5c79a3);" vertex="1" parent="1">
          <mxGeometry x="310" y="440" width="130" height="60" as="geometry" />
        </mxCell>
        <mxCell id="DmLLjxnq52UOg-lWH7cw-9" value="&lt;b&gt;Range 2018 - 2028&lt;/b&gt;" style="html=1;shadow=0;dashed=0;shape=mxgraph.bootstrap.rangeInput;dx=0.6;strokeColor=#0085FC;fillColor=#DEE2E6;fontColor=#777777;whiteSpace=wrap;align=left;verticalAlign=bottom;fontStyle=0;fontSize=14;labelPosition=center;verticalLabelPosition=top;" vertex="1" parent="1">
          <mxGeometry x="840" y="220" width="150" height="10" as="geometry" />
        </mxCell>
        <mxCell id="DmLLjxnq52UOg-lWH7cw-10" value="&lt;b&gt;&lt;font style=&quot;font-size: 17px;&quot;&gt;999&lt;/font&gt;&lt;/b&gt;" style="rounded=0;whiteSpace=wrap;html=1;fillColor=none;strokeColor=default;" vertex="1" parent="1">
          <mxGeometry x="820" y="380" width="80" height="60" as="geometry" />
        </mxCell>
        <mxCell id="DmLLjxnq52UOg-lWH7cw-11" value="" style="verticalLabelPosition=bottom;shadow=0;dashed=0;align=center;html=1;verticalAlign=top;strokeWidth=1;shape=mxgraph.mockup.graphics.barChart;strokeColor=none;strokeColor2=none;strokeColor3=#666666;fillColor2=#008cff;fillColor3=#dddddd;" vertex="1" parent="1">
          <mxGeometry x="520" y="560" width="120" height="50" as="geometry" />
        </mxCell>
        <mxCell id="DmLLjxnq52UOg-lWH7cw-12" value="" style="points=[];aspect=fixed;html=1;align=center;shadow=0;dashed=0;fillColor=#FF6A00;strokeColor=none;shape=mxgraph.alibaba_cloud.rsimganalys;" vertex="1" parent="1">
          <mxGeometry x="340" y="516" width="60.93" height="54" as="geometry" />
        </mxCell>
        <mxCell id="DmLLjxnq52UOg-lWH7cw-13" value="" style="sketch=0;points=[[0,0,0],[0.25,0,0],[0.5,0,0],[0.75,0,0],[1,0,0],[0,1,0],[0.25,1,0],[0.5,1,0],[0.75,1,0],[1,1,0],[0,0.25,0],[0,0.5,0],[0,0.75,0],[1,0.25,0],[1,0.5,0],[1,0.75,0]];outlineConnect=0;fontColor=#232F3E;fillColor=#C925D1;strokeColor=#ffffff;dashed=0;verticalLabelPosition=bottom;verticalAlign=top;align=center;html=1;fontSize=12;fontStyle=0;aspect=fixed;shape=mxgraph.aws4.resourceIcon;resIcon=mxgraph.aws4.database;" vertex="1" parent="1">
          <mxGeometry x="378" y="80" width="34" height="34" as="geometry" />
        </mxCell>
        <mxCell id="DmLLjxnq52UOg-lWH7cw-14" value="&lt;span style=&quot;font-size: 17px;&quot;&gt;&lt;b&gt;A C&lt;/b&gt;&lt;/span&gt;&lt;div&gt;&lt;span style=&quot;font-size: 17px;&quot;&gt;&lt;b&gt;B D&lt;/b&gt;&lt;/span&gt;&lt;/div&gt;" style="rounded=0;whiteSpace=wrap;html=1;fillColor=none;strokeColor=default;" vertex="1" parent="1">
          <mxGeometry x="545" y="54" width="80" height="60" as="geometry" />
        </mxCell>
        <mxCell id="DmLLjxnq52UOg-lWH7cw-15" value="" style="endArrow=none;dashed=1;html=1;dashPattern=1 3;strokeWidth=2;rounded=0;entryX=0.366;entryY=1.08;entryDx=0;entryDy=0;entryPerimeter=0;fillColor=#dae8fc;strokeColor=#6c8ebf;" edge="1" parent="1" target="DmLLjxnq52UOg-lWH7cw-4">
          <mxGeometry width="50" height="50" relative="1" as="geometry">
            <mxPoint x="530" y="260" as="sourcePoint" />
            <mxPoint x="562.5" y="190" as="targetPoint" />
          </mxGeometry>
        </mxCell>
        <mxCell id="DmLLjxnq52UOg-lWH7cw-16" value="" style="endArrow=none;dashed=1;html=1;dashPattern=1 3;strokeWidth=2;rounded=0;entryX=0.554;entryY=1.04;entryDx=0;entryDy=0;entryPerimeter=0;fillColor=#dae8fc;strokeColor=#6c8ebf;" edge="1" parent="1" target="DmLLjxnq52UOg-lWH7cw-3">
          <mxGeometry width="50" height="50" relative="1" as="geometry">
            <mxPoint x="450" y="280" as="sourcePoint" />
            <mxPoint x="488" y="205" as="targetPoint" />
          </mxGeometry>
        </mxCell>
        <mxCell id="DmLLjxnq52UOg-lWH7cw-17" value="" style="endArrow=none;dashed=1;html=1;dashPattern=1 3;strokeWidth=2;rounded=0;entryX=0;entryY=0.5;entryDx=0;entryDy=0;fillColor=#dae8fc;strokeColor=#6c8ebf;" edge="1" parent="1" target="DmLLjxnq52UOg-lWH7cw-5">
          <mxGeometry width="50" height="50" relative="1" as="geometry">
            <mxPoint x="612" y="295" as="sourcePoint" />
            <mxPoint x="650" y="220" as="targetPoint" />
          </mxGeometry>
        </mxCell>
        <mxCell id="DmLLjxnq52UOg-lWH7cw-18" value="" style="endArrow=none;dashed=1;html=1;dashPattern=1 3;strokeWidth=2;rounded=0;entryX=-0.025;entryY=0.373;entryDx=0;entryDy=0;entryPerimeter=0;fillColor=#dae8fc;strokeColor=#6c8ebf;" edge="1" parent="1" target="DmLLjxnq52UOg-lWH7cw-6">
          <mxGeometry width="50" height="50" relative="1" as="geometry">
            <mxPoint x="592" y="355" as="sourcePoint" />
            <mxPoint x="670" y="290" as="targetPoint" />
          </mxGeometry>
        </mxCell>
        <mxCell id="DmLLjxnq52UOg-lWH7cw-19" value="" style="endArrow=none;dashed=1;html=1;dashPattern=1 3;strokeWidth=2;rounded=0;entryX=0.5;entryY=0;entryDx=0;entryDy=0;fillColor=#dae8fc;strokeColor=#6c8ebf;" edge="1" parent="1" target="DmLLjxnq52UOg-lWH7cw-7">
          <mxGeometry width="50" height="50" relative="1" as="geometry">
            <mxPoint x="537.5" y="370" as="sourcePoint" />
            <mxPoint x="612.5" y="417" as="targetPoint" />
          </mxGeometry>
        </mxCell>
        <mxCell id="DmLLjxnq52UOg-lWH7cw-20" value="" style="endArrow=none;dashed=1;html=1;dashPattern=1 3;strokeWidth=2;rounded=0;entryX=0.5;entryY=0;entryDx=0;entryDy=0;fillColor=#dae8fc;strokeColor=#6c8ebf;" edge="1" parent="1" target="DmLLjxnq52UOg-lWH7cw-8">
          <mxGeometry width="50" height="50" relative="1" as="geometry">
            <mxPoint x="435" y="340" as="sourcePoint" />
            <mxPoint x="510" y="387" as="targetPoint" />
          </mxGeometry>
        </mxCell>
        <mxCell id="DmLLjxnq52UOg-lWH7cw-24" value="&lt;font style=&quot;font-size: 20px;&quot;&gt;&lt;b&gt;Exploratory Data Analysis&lt;/b&gt;&lt;/font&gt;" style="rounded=1;whiteSpace=wrap;html=1;fillColor=none;strokeColor=none;" vertex="1" parent="1">
          <mxGeometry x="10" y="-20" width="410" height="60" as="geometry" />
        </mxCell>
      </root>
    </mxGraphModel>
  </diagram>
</mxfile>
